<?xml version="1.0" encoding="UTF-8"?>
<svg id="Layer_1" data-name="Layer 1" xmlns="http://www.w3.org/2000/svg" viewBox="0 0 594.85 594.85">
  <path d="M95.97,340.86c.63-5.56,5.44-11.6,10.5-12.86,5.06-1.27,8.15,2.53,7.16,7.82-1,5.3-5.4,10.3-10.1,11.85-4.7,1.53-8.19-1.23-7.55-6.81Z" style="fill: #1d3557; stroke-width: 0px;"/>
  <path d="M132.17,379.15c-.29-5.21,3.49-9.24,7.99-8.56,4.51.67,8.01,5.33,8.26,9.99.24,4.68-2.88,8.01-7.35,7.88-4.45-.14-8.62-4.1-8.9-9.31Z" style="fill: #1d3557; stroke-width: 0px;"/>
  <path d="M150.83,418.18c-5.87,14.94-6.64,35.66-2.17,62.58.27,1.65.55,3.32.86,5.01-19.39-1-38.02-2.42-56.14-3.72-2.21-38.88,1.98-70.31,11.57-93.06.56-1.35,1.13-2.67,1.72-3.96,12.32,10.29,25.76,22.09,42.74,32.3.47.3.95.58,1.42.85Z" style="fill: #1d3557; stroke-width: 0px;"/>
  <path d="M136.15,211.25c-2.92-5.32-1.27-9.73,3.85-9.36,5.11.36,11.77,5.56,14.67,11.2,2.91,5.65.94,9.31-4.14,8.63-5.1-.69-11.45-5.15-14.38-10.47Z" style="fill: #1d3557; stroke-width: 0px;"/>
  <path d="M158.58,288.29c4.77,1.38,7.69,6.77,6.5,11.63-1.19,4.86-5.95,7.33-10.61,5.91-4.66-1.44-7.54-6.17-6.46-11,1.07-4.81,5.79-7.93,10.56-6.54Z" style="fill: #1d3557; stroke-width: 0px;"/>
  <path d="M185.44,452.35c3.89,3.67,3.73,8.04-.21,10.38-3.94,2.32-10.34,1.35-14.42-2.91-4.08-4.27-4.04-9.71.1-11.43,4.13-1.74,10.66.32,14.54,3.96Z" style="fill: #1d3557; stroke-width: 0px;"/>
  <path d="M146.34,338.66c-.06.03-.12.08-.19.11-.3-.56-.6-1.12-.9-1.68.06-.04.13-.08.19-.12l.89,1.68Z" style="fill: #1d3557; stroke-width: 0px;"/>
  <path d="M190.49,356.1c-.85,4.23-5.04,6.34-9.61,4.73-4.55-1.62-7.52-6.57-6.39-11.08,1.12-4.51,5.69-6.64,9.97-4.75,4.29,1.9,6.88,6.88,6.03,11.11Z" style="fill: #1d3557; stroke-width: 0px;"/>
  <path d="M171.18,266.32c-1.16-1.64-2.36-3.26-3.61-4.87,1.26,1.6,2.45,3.23,3.61,4.87Z" style="fill: #1d3557; stroke-width: 0px;"/>
  <path d="M173.45,269.63c-.73-1.11-1.49-2.21-2.27-3.31.78,1.1,1.54,2.2,2.27,3.31Z" style="fill: #1d3557; stroke-width: 0px;"/>
  <path d="M176.65,274.64c-1.04-1.68-2.1-3.35-3.2-5.01,1.11,1.65,2.17,3.32,3.2,5.01Z" style="fill: #1d3557; stroke-width: 0px;"/>
  <path d="M196.31,313.72l-.66-1.24s.08-.05.12-.07c.19.44.36.87.54,1.31Z" style="fill: #1d3557; stroke-width: 0px;"/>
  <path d="M196.85,279.41c-3.81-1.88-6.99-7.68-7.42-13.09-.43-5.41,2.03-8.59,5.8-6.95,3.76,1.64,7.45,7.67,7.91,13.31.47,5.65-2.48,8.6-6.28,6.73Z" style="fill: #1d3557; stroke-width: 0px;"/>
  <path d="M242.79,413.28c-9.22,9.18-16.89,18.15-21.86,28.56-.98-.16-1.94-.32-2.9-.49-24.38-4.33-45.83-12.21-63.38-22.67,5.49-13.42,14.76-22.79,26.55-29.97.21-.13.41-.25.62-.38,15.13,13.18,35.54,22.12,60.96,24.95Z" style="fill: #1d3557; stroke-width: 0px;"/>
  <path d="M302.51,442.22c-8,12.54-13.74,24.89-16.96,37.88-25.15,3.28-47.94,4.57-69.57,4.92-2.82-17.51-.76-30.95,4.66-42.58.09-.2.19-.41.28-.6,24.65,4.06,52.19,4.51,81.58.38Z" style="fill: #1d3557; stroke-width: 0px;"/>
  <path d="M499.26,377.99c30.23,26.09-7.41,78.21-34.14,45.72,2.48,18.85-3.56,28.8-21.66,30.43-12.79-22.95-26-41.34-47.03-48.93-19.2-6.94-45.87-2.69-70.62-2.71-51.27-.03-79.98-26.17-81.87-70.06-.98-22.92,13.03-41.86,10.21-54.79-2.32-10.68-10.29-15.01-18.57-21.13-8.2-6.07-12.13-2.42-2.05-10.61l2.87-2.5,5.07-4.38c1.77-3.43,3.77-6.28,5.96-8.63,1.48-1.55,3-2.9,4.64-4,3.56-2.46,7.44-3.94,11.37-4.46,15.8-2.12,27.01,10.5,31.97,24.11,1.06,2.9,1.88,5.91,2.56,8.96,6.22-16.43,15.09-30.2,25.21-39.17,23.16-20.5,72.97-24.47,93.51-78.21,1.22-4.11,2.69-6.59,4.44-7.39,2.05-.92,4.32.82,6.3,3.06,4.54,5.17,5.96,10.52,10,15.91,2.82,3.74,6.81,7.38,10.26,10.44-9.53,13.83-22.76,23.72-36.98,32.89-19.68,12.71-41.05,18.89-60.38,30.21-20.28,11.84-36.16,30.04-49.33,51.56.3,2.16.58,4.35.9,6.49,40.59-69.4,84.99-57.42,131.29-98.04,14.55-12.8,23.61-27.57,28.67-43.24,1.22-2.4,2.56-3.56,4.04-3.61,4.32-.19,8.41,8.89,10.08,12.24,16.72,33.45,14.61,67.95-1.74,103.27-5.69,56.53-39.27,80.8-87.18,88.5,55.07,27.17,102.77,31.16,135.92-10.36,5.25,24.32-4.96,39.04-23.71,48.43Z" style="fill: #1d3557; stroke-width: 0px;"/>
  <circle cx="257.45" cy="240.8" r="3.8" transform="translate(-36.06 436.04) rotate(-76.72)" style="fill: #fff; stroke: #1d3557; stroke-miterlimit: 10; stroke-width: .69px;"/>
  <path d="M262.65,460.23c-4.27-1.94-12.49-1.99-17.98-.03-5.51,1.95-6.14,5.62-1.81,7.97,4.34,2.36,11.9,2.16,17.34-.21,5.44-2.38,6.73-5.79,2.45-7.73ZM262.65,460.23c-4.27-1.94-12.49-1.99-17.98-.03-5.51,1.95-6.14,5.62-1.81,7.97,4.34,2.36,11.9,2.16,17.34-.21,5.44-2.38,6.73-5.79,2.45-7.73ZM125.28,433.77c-2.8-5.65-7.73-8.4-11.41-5.23-3.68,3.14-4.46,11.58-1.3,17.9,3.15,6.34,8.68,7.6,12,3.79,3.33-3.83,3.5-10.78.71-16.46ZM262.65,460.23c-4.27-1.94-12.49-1.99-17.98-.03-5.51,1.95-6.14,5.62-1.81,7.97,4.34,2.36,11.9,2.16,17.34-.21,5.44-2.38,6.73-5.79,2.45-7.73ZM262.65,460.23c-4.27-1.94-12.49-1.99-17.98-.03-5.51,1.95-6.14,5.62-1.81,7.97,4.34,2.36,11.9,2.16,17.34-.21,5.44-2.38,6.73-5.79,2.45-7.73ZM125.28,433.77c-2.8-5.65-7.73-8.4-11.41-5.23-3.68,3.14-4.46,11.58-1.3,17.9,3.15,6.34,8.68,7.6,12,3.79,3.33-3.83,3.5-10.78.71-16.46ZM125.28,433.77c-2.8-5.65-7.73-8.4-11.41-5.23-3.68,3.14-4.46,11.58-1.3,17.9,3.15,6.34,8.68,7.6,12,3.79,3.33-3.83,3.5-10.78.71-16.46ZM201.27,416.63c-2.46-3.13-8.58-5.89-13.87-6.13-5.3-.25-7.94,2.65-5.64,6.39,2.3,3.74,8.72,6.39,14.16,6.04,5.47-.35,7.8-3.15,5.35-6.3ZM262.65,460.23c-4.27-1.94-12.49-1.99-17.98-.03-5.51,1.95-6.14,5.62-1.81,7.97,4.34,2.36,11.9,2.16,17.34-.21,5.44-2.38,6.73-5.79,2.45-7.73ZM262.65,460.23c-4.27-1.94-12.49-1.99-17.98-.03-5.51,1.95-6.14,5.62-1.81,7.97,4.34,2.36,11.9,2.16,17.34-.21,5.44-2.38,6.73-5.79,2.45-7.73ZM201.27,416.63c-2.46-3.13-8.58-5.89-13.87-6.13-5.3-.25-7.94,2.65-5.64,6.39,2.3,3.74,8.72,6.39,14.16,6.04,5.47-.35,7.8-3.15,5.35-6.3ZM125.28,433.77c-2.8-5.65-7.73-8.4-11.41-5.23-3.68,3.14-4.46,11.58-1.3,17.9,3.15,6.34,8.68,7.6,12,3.79,3.33-3.83,3.5-10.78.71-16.46ZM125.28,433.77c-2.8-5.65-7.73-8.4-11.41-5.23-3.68,3.14-4.46,11.58-1.3,17.9,3.15,6.34,8.68,7.6,12,3.79,3.33-3.83,3.5-10.78.71-16.46ZM184.46,344.99c-4.28-1.89-8.85.25-9.97,4.75-1.13,4.51,1.84,9.46,6.39,11.08,4.57,1.61,8.76-.49,9.61-4.73.84-4.23-1.74-9.21-6.03-11.11ZM201.27,416.63c-2.46-3.13-8.58-5.89-13.87-6.13-5.3-.25-7.94,2.65-5.64,6.39,2.3,3.74,8.72,6.39,14.16,6.04,5.47-.35,7.8-3.15,5.35-6.3ZM262.65,460.23c-4.27-1.94-12.49-1.99-17.98-.03-5.51,1.95-6.14,5.62-1.81,7.97,4.34,2.36,11.9,2.16,17.34-.21,5.44-2.38,6.73-5.79,2.45-7.73ZM262.65,460.23c-4.27-1.94-12.49-1.99-17.98-.03-5.51,1.95-6.14,5.62-1.81,7.97,4.34,2.36,11.9,2.16,17.34-.21,5.44-2.38,6.73-5.79,2.45-7.73ZM201.27,416.63c-2.46-3.13-8.58-5.89-13.87-6.13-5.3-.25-7.94,2.65-5.64,6.39,2.3,3.74,8.72,6.39,14.16,6.04,5.47-.35,7.8-3.15,5.35-6.3ZM125.28,433.77c-2.8-5.65-7.73-8.4-11.41-5.23-3.68,3.14-4.46,11.58-1.3,17.9,3.15,6.34,8.68,7.6,12,3.79,3.33-3.83,3.5-10.78.71-16.46ZM184.46,344.99c-4.28-1.89-8.85.25-9.97,4.75-1.13,4.51,1.84,9.46,6.39,11.08,4.57,1.61,8.76-.49,9.61-4.73.84-4.23-1.74-9.21-6.03-11.11ZM125.28,433.77c-2.8-5.65-7.73-8.4-11.41-5.23-3.68,3.14-4.46,11.58-1.3,17.9,3.15,6.34,8.68,7.6,12,3.79,3.33-3.83,3.5-10.78.71-16.46ZM184.46,344.99c-4.28-1.89-8.85.25-9.97,4.75-1.13,4.51,1.84,9.46,6.39,11.08,4.57,1.61,8.76-.49,9.61-4.73.84-4.23-1.74-9.21-6.03-11.11ZM201.27,416.63c-2.46-3.13-8.58-5.89-13.87-6.13-5.3-.25-7.94,2.65-5.64,6.39,2.3,3.74,8.72,6.39,14.16,6.04,5.47-.35,7.8-3.15,5.35-6.3ZM203.13,272.68c-.46-5.64-4.14-11.67-7.91-13.31-3.77-1.64-6.22,1.54-5.8,6.95.43,5.41,3.62,11.21,7.42,13.09,3.8,1.87,6.75-1.09,6.28-6.73ZM262.65,460.23c-4.27-1.94-12.49-1.99-17.98-.03-5.51,1.95-6.14,5.62-1.81,7.97,4.34,2.36,11.9,2.16,17.34-.21,5.44-2.38,6.73-5.79,2.45-7.73ZM262.65,460.23c-4.27-1.94-12.49-1.99-17.98-.03-5.51,1.95-6.14,5.62-1.81,7.97,4.34,2.36,11.9,2.16,17.34-.21,5.44-2.38,6.73-5.79,2.45-7.73ZM201.27,416.63c-2.46-3.13-8.58-5.89-13.87-6.13-5.3-.25-7.94,2.65-5.64,6.39,2.3,3.74,8.72,6.39,14.16,6.04,5.47-.35,7.8-3.15,5.35-6.3ZM125.28,433.77c-2.8-5.65-7.73-8.4-11.41-5.23-3.68,3.14-4.46,11.58-1.3,17.9,3.15,6.34,8.68,7.6,12,3.79,3.33-3.83,3.5-10.78.71-16.46ZM203.13,272.68c-.46-5.64-4.14-11.67-7.91-13.31-3.77-1.64-6.22,1.54-5.8,6.95.43,5.41,3.62,11.21,7.42,13.09,3.8,1.87,6.75-1.09,6.28-6.73ZM145.45,336.98c-.06.03-.13.08-.19.12.3.56.6,1.11.9,1.68.06-.03.12-.08.19-.11l-.89-1.68ZM167.57,261.45c1.24,1.61,2.45,3.23,3.61,4.87-1.15-1.64-2.35-3.27-3.61-4.87ZM171.18,266.32c.78,1.1,1.53,2.2,2.27,3.31-.73-1.11-1.48-2.21-2.27-3.31ZM173.45,269.63c1.1,1.66,2.16,3.32,3.2,5.01-1.03-1.68-2.09-3.36-3.2-5.01ZM184.46,344.99c-4.28-1.89-8.85.25-9.97,4.75-1.13,4.51,1.84,9.46,6.39,11.08,4.57,1.61,8.76-.49,9.61-4.73.84-4.23-1.74-9.21-6.03-11.11ZM125.28,433.77c-2.8-5.65-7.73-8.4-11.41-5.23-3.68,3.14-4.46,11.58-1.3,17.9,3.15,6.34,8.68,7.6,12,3.79,3.33-3.83,3.5-10.78.71-16.46ZM184.46,344.99c-4.28-1.89-8.85.25-9.97,4.75-1.13,4.51,1.84,9.46,6.39,11.08,4.57,1.61,8.76-.49,9.61-4.73.84-4.23-1.74-9.21-6.03-11.11ZM201.27,416.63c-2.46-3.13-8.58-5.89-13.87-6.13-5.3-.25-7.94,2.65-5.64,6.39,2.3,3.74,8.72,6.39,14.16,6.04,5.47-.35,7.8-3.15,5.35-6.3ZM203.13,272.68c-.46-5.64-4.14-11.67-7.91-13.31-3.77-1.64-6.22,1.54-5.8,6.95.43,5.41,3.62,11.21,7.42,13.09,3.8,1.87,6.75-1.09,6.28-6.73ZM262.65,460.23c-4.27-1.94-12.49-1.99-17.98-.03-5.51,1.95-6.14,5.62-1.81,7.97,4.34,2.36,11.9,2.16,17.34-.21,5.44-2.38,6.73-5.79,2.45-7.73ZM262.65,460.23c-4.27-1.94-12.49-1.99-17.98-.03-5.51,1.95-6.14,5.62-1.81,7.97,4.34,2.36,11.9,2.16,17.34-.21,5.44-2.38,6.73-5.79,2.45-7.73ZM201.27,416.63c-2.46-3.13-8.58-5.89-13.87-6.13-5.3-.25-7.94,2.65-5.64,6.39,2.3,3.74,8.72,6.39,14.16,6.04,5.47-.35,7.8-3.15,5.35-6.3ZM125.28,433.77c-2.8-5.65-7.73-8.4-11.41-5.23-3.68,3.14-4.46,11.58-1.3,17.9,3.15,6.34,8.68,7.6,12,3.79,3.33-3.83,3.5-10.78.71-16.46ZM203.13,272.68c-.46-5.64-4.14-11.67-7.91-13.31-3.77-1.64-6.22,1.54-5.8,6.95.43,5.41,3.62,11.21,7.42,13.09,3.8,1.87,6.75-1.09,6.28-6.73ZM184.46,344.99c-4.28-1.89-8.85.25-9.97,4.75-1.13,4.51,1.84,9.46,6.39,11.08,4.57,1.61,8.76-.49,9.61-4.73.84-4.23-1.74-9.21-6.03-11.11ZM262.65,460.23c-4.27-1.94-12.49-1.99-17.98-.03-5.51,1.95-6.14,5.62-1.81,7.97,4.34,2.36,11.9,2.16,17.34-.21,5.44-2.38,6.73-5.79,2.45-7.73ZM203.13,272.68c-.46-5.64-4.14-11.67-7.91-13.31-3.77-1.64-6.22,1.54-5.8,6.95.43,5.41,3.62,11.21,7.42,13.09,3.8,1.87,6.75-1.09,6.28-6.73ZM201.27,416.63c-2.46-3.13-8.58-5.89-13.87-6.13-5.3-.25-7.94,2.65-5.64,6.39,2.3,3.74,8.72,6.39,14.16,6.04,5.47-.35,7.8-3.15,5.35-6.3ZM145.45,336.98c-.06.03-.13.08-.19.12.3.56.6,1.11.9,1.68.06-.03.12-.08.19-.11l-.89-1.68ZM167.57,261.45c1.24,1.61,2.45,3.23,3.61,4.87-1.15-1.64-2.35-3.27-3.61-4.87ZM171.18,266.32c.78,1.1,1.53,2.2,2.27,3.31-.73-1.11-1.48-2.21-2.27-3.31ZM173.45,269.63c1.1,1.66,2.16,3.32,3.2,5.01-1.03-1.68-2.09-3.36-3.2-5.01ZM184.46,344.99c-4.28-1.89-8.85.25-9.97,4.75-1.13,4.51,1.84,9.46,6.39,11.08,4.57,1.61,8.76-.49,9.61-4.73.84-4.23-1.74-9.21-6.03-11.11ZM125.28,433.77c-2.8-5.65-7.73-8.4-11.41-5.23-3.68,3.14-4.46,11.58-1.3,17.9,3.15,6.34,8.68,7.6,12,3.79,3.33-3.83,3.5-10.78.71-16.46ZM184.46,344.99c-4.28-1.89-8.85.25-9.97,4.75-1.13,4.51,1.84,9.46,6.39,11.08,4.57,1.61,8.76-.49,9.61-4.73.84-4.23-1.74-9.21-6.03-11.11ZM145.45,336.98c-.06.03-.13.08-.19.12.3.56.6,1.11.9,1.68.06-.03.12-.08.19-.11l-.89-1.68ZM203.13,272.68c-.46-5.64-4.14-11.67-7.91-13.31-3.77-1.64-6.22,1.54-5.8,6.95.43,5.41,3.62,11.21,7.42,13.09,3.8,1.87,6.75-1.09,6.28-6.73ZM125.28,433.77c-2.8-5.65-7.73-8.4-11.41-5.23-3.68,3.14-4.46,11.58-1.3,17.9,3.15,6.34,8.68,7.6,12,3.79,3.33-3.83,3.5-10.78.71-16.46ZM201.27,416.63c-2.46-3.13-8.58-5.89-13.87-6.13-5.3-.25-7.94,2.65-5.64,6.39,2.3,3.74,8.72,6.39,14.16,6.04,5.47-.35,7.8-3.15,5.35-6.3ZM262.65,460.23c-4.27-1.94-12.49-1.99-17.98-.03-5.51,1.95-6.14,5.62-1.81,7.97,4.34,2.36,11.9,2.16,17.34-.21,5.44-2.38,6.73-5.79,2.45-7.73ZM262.65,460.23c-4.27-1.94-12.49-1.99-17.98-.03-5.51,1.95-6.14,5.62-1.81,7.97,4.34,2.36,11.9,2.16,17.34-.21,5.44-2.38,6.73-5.79,2.45-7.73ZM203.13,272.68c-.46-5.64-4.14-11.67-7.91-13.31-3.77-1.64-6.22,1.54-5.8,6.95.43,5.41,3.62,11.21,7.42,13.09,3.8,1.87,6.75-1.09,6.28-6.73ZM201.27,416.63c-2.46-3.13-8.58-5.89-13.87-6.13-5.3-.25-7.94,2.65-5.64,6.39,2.3,3.74,8.72,6.39,14.16,6.04,5.47-.35,7.8-3.15,5.35-6.3ZM184.46,344.99c-4.28-1.89-8.85.25-9.97,4.75-1.13,4.51,1.84,9.46,6.39,11.08,4.57,1.61,8.76-.49,9.61-4.73.84-4.23-1.74-9.21-6.03-11.11ZM125.28,433.77c-2.8-5.65-7.73-8.4-11.41-5.23-3.68,3.14-4.46,11.58-1.3,17.9,3.15,6.34,8.68,7.6,12,3.79,3.33-3.83,3.5-10.78.71-16.46ZM184.46,344.99c-4.28-1.89-8.85.25-9.97,4.75-1.13,4.51,1.84,9.46,6.39,11.08,4.57,1.61,8.76-.49,9.61-4.73.84-4.23-1.74-9.21-6.03-11.11ZM125.28,433.77c-2.8-5.65-7.73-8.4-11.41-5.23-3.68,3.14-4.46,11.58-1.3,17.9,3.15,6.34,8.68,7.6,12,3.79,3.33-3.83,3.5-10.78.71-16.46ZM201.27,416.63c-2.46-3.13-8.58-5.89-13.87-6.13-5.3-.25-7.94,2.65-5.64,6.39,2.3,3.74,8.72,6.39,14.16,6.04,5.47-.35,7.8-3.15,5.35-6.3ZM262.65,460.23c-4.27-1.94-12.49-1.99-17.98-.03-5.51,1.95-6.14,5.62-1.81,7.97,4.34,2.36,11.9,2.16,17.34-.21,5.44-2.38,6.73-5.79,2.45-7.73ZM262.65,460.23c-4.27-1.94-12.49-1.99-17.98-.03-5.51,1.95-6.14,5.62-1.81,7.97,4.34,2.36,11.9,2.16,17.34-.21,5.44-2.38,6.73-5.79,2.45-7.73ZM201.27,416.63c-2.46-3.13-8.58-5.89-13.87-6.13-5.3-.25-7.94,2.65-5.64,6.39,2.3,3.74,8.72,6.39,14.16,6.04,5.47-.35,7.8-3.15,5.35-6.3ZM184.46,344.99c-4.28-1.89-8.85.25-9.97,4.75-1.13,4.51,1.84,9.46,6.39,11.08,4.57,1.61,8.76-.49,9.61-4.73.84-4.23-1.74-9.21-6.03-11.11ZM125.28,433.77c-2.8-5.65-7.73-8.4-11.41-5.23-3.68,3.14-4.46,11.58-1.3,17.9,3.15,6.34,8.68,7.6,12,3.79,3.33-3.83,3.5-10.78.71-16.46ZM125.28,433.77c-2.8-5.65-7.73-8.4-11.41-5.23-3.68,3.14-4.46,11.58-1.3,17.9,3.15,6.34,8.68,7.6,12,3.79,3.33-3.83,3.5-10.78.71-16.46ZM201.27,416.63c-2.46-3.13-8.58-5.89-13.87-6.13-5.3-.25-7.94,2.65-5.64,6.39,2.3,3.74,8.72,6.39,14.16,6.04,5.47-.35,7.8-3.15,5.35-6.3ZM262.65,460.23c-4.27-1.94-12.49-1.99-17.98-.03-5.51,1.95-6.14,5.62-1.81,7.97,4.34,2.36,11.9,2.16,17.34-.21,5.44-2.38,6.73-5.79,2.45-7.73ZM262.65,460.23c-4.27-1.94-12.49-1.99-17.98-.03-5.51,1.95-6.14,5.62-1.81,7.97,4.34,2.36,11.9,2.16,17.34-.21,5.44-2.38,6.73-5.79,2.45-7.73ZM201.27,416.63c-2.46-3.13-8.58-5.89-13.87-6.13-5.3-.25-7.94,2.65-5.64,6.39,2.3,3.74,8.72,6.39,14.16,6.04,5.47-.35,7.8-3.15,5.35-6.3ZM125.28,433.77c-2.8-5.65-7.73-8.4-11.41-5.23-3.68,3.14-4.46,11.58-1.3,17.9,3.15,6.34,8.68,7.6,12,3.79,3.33-3.83,3.5-10.78.71-16.46ZM106.46,328c-5.06,1.26-9.86,7.3-10.5,12.86-.65,5.58,2.85,8.34,7.55,6.81,4.7-1.55,9.11-6.55,10.1-11.85.99-5.29-2.1-9.09-7.16-7.82ZM125.28,433.77c-2.8-5.65-7.73-8.4-11.41-5.23-3.68,3.14-4.46,11.58-1.3,17.9,3.15,6.34,8.68,7.6,12,3.79,3.33-3.83,3.5-10.78.71-16.46ZM201.27,416.63c-2.46-3.13-8.58-5.89-13.87-6.13-5.3-.25-7.94,2.65-5.64,6.39,2.3,3.74,8.72,6.39,14.16,6.04,5.47-.35,7.8-3.15,5.35-6.3ZM262.65,460.23c-4.27-1.94-12.49-1.99-17.98-.03-5.51,1.95-6.14,5.62-1.81,7.97,4.34,2.36,11.9,2.16,17.34-.21,5.44-2.38,6.73-5.79,2.45-7.73ZM262.65,460.23c-4.27-1.94-12.49-1.99-17.98-.03-5.51,1.95-6.14,5.62-1.81,7.97,4.34,2.36,11.9,2.16,17.34-.21,5.44-2.38,6.73-5.79,2.45-7.73ZM201.27,416.63c-2.46-3.13-8.58-5.89-13.87-6.13-5.3-.25-7.94,2.65-5.64,6.39,2.3,3.74,8.72,6.39,14.16,6.04,5.47-.35,7.8-3.15,5.35-6.3ZM125.28,433.77c-2.8-5.65-7.73-8.4-11.41-5.23-3.68,3.14-4.46,11.58-1.3,17.9,3.15,6.34,8.68,7.6,12,3.79,3.33-3.83,3.5-10.78.71-16.46ZM262.65,460.23c-4.27-1.94-12.49-1.99-17.98-.03-5.51,1.95-6.14,5.62-1.81,7.97,4.34,2.36,11.9,2.16,17.34-.21,5.44-2.38,6.73-5.79,2.45-7.73ZM262.65,460.23c-4.27-1.94-12.49-1.99-17.98-.03-5.51,1.95-6.14,5.62-1.81,7.97,4.34,2.36,11.9,2.16,17.34-.21,5.44-2.38,6.73-5.79,2.45-7.73Z" style="fill: #fff; stroke: #1d3557; stroke-miterlimit: 10; stroke-width: .69px;"/>
  <path d="M297.43,0C133.16,0,0,133.16,0,297.43s133.16,297.43,297.43,297.43,297.43-133.16,297.43-297.43S461.69,0,297.43,0ZM164.35,256.13c11.04-9.94,18.6-19.76,20.8-32.76.04-.21.08-.41.11-.63,17.78,20.08,30.37,41.32,40.53,60.55-6.31,12.64-17.01,21.37-30.02,29.1.19.44.36.87.54,1.31.16.36.31.73.46,1.09,7.26,17.43,13.98,33.59,24.29,45.15-13.89,9.62-29.47,16.4-42.91,25.02-13.56-12.81-22.71-29.06-31.18-44.71-.27-.5-.54-1-.8-1.5-.3-.56-.6-1.12-.9-1.68.06-.04.13-.08.19-.12.8-.51,1.6-1,2.4-1.49,8.1-4.92,16.37-8.99,24.33-12.84,7.91-3.85,15.5-7.49,22.27-11.55-.03-.06-.05-.12-.08-.18-.69-1.66-1.39-3.35-2.11-5.03-.49-1.15-.99-2.31-1.5-3.48-.51-1.17-1.02-2.34-1.55-3.51-.23-.51-.45-1.01-.69-1.52-.41-.91-.84-1.83-1.26-2.75-.43-.91-.86-1.82-1.3-2.73-1.43-2.97-2.93-5.93-4.51-8.87-.59-1.09-1.19-2.18-1.8-3.26-.32-.57-.65-1.15-.98-1.72-.3-.51-.59-1.02-.89-1.52-.37-.64-.76-1.27-1.14-1.9-1.04-1.68-2.1-3.35-3.2-5.01-.73-1.11-1.49-2.21-2.27-3.31-1.16-1.64-2.36-3.26-3.61-4.87-.41-.54-.83-1.06-1.26-1.59-.43-.54-.86-1.06-1.29-1.59-.43-.52-.87-1.04-1.32-1.57.21-.19.43-.38.64-.57ZM165.09,299.92c-1.19,4.86-5.95,7.33-10.61,5.91-4.66-1.44-7.54-6.17-6.46-11,1.07-4.81,5.79-7.93,10.56-6.54,4.77,1.38,7.69,6.77,6.5,11.63ZM140,201.89c5.11.36,11.77,5.56,14.67,11.2,2.91,5.65.94,9.31-4.14,8.63-5.1-.69-11.45-5.15-14.38-10.47-2.92-5.32-1.27-9.73,3.85-9.36ZM140.15,370.59c4.51.67,8.01,5.33,8.26,9.99.24,4.68-2.88,8.01-7.35,7.88-4.45-.14-8.62-4.1-8.9-9.31-.29-5.21,3.49-9.24,7.99-8.56ZM148.66,480.76c.27,1.65.55,3.32.86,5.01-19.39-1-38.02-2.42-56.14-3.72-2.21-38.88,1.98-70.31,11.57-93.06.56-1.35,1.13-2.67,1.72-3.96,12.32,10.29,25.76,22.09,42.74,32.3.47.3.95.58,1.42.85-5.87,14.94-6.64,35.66-2.17,62.58ZM185.23,462.73c-3.94,2.32-10.34,1.35-14.42-2.91-4.08-4.27-4.04-9.71.1-11.43,4.13-1.74,10.66.32,14.54,3.96,3.89,3.67,3.73,8.04-.21,10.38ZM285.55,480.1c-25.15,3.28-47.94,4.57-69.57,4.92-2.82-17.51-.76-30.95,4.66-42.58.09-.2.19-.41.28-.6-.98-.16-1.94-.32-2.9-.49-24.38-4.33-45.83-12.21-63.38-22.67,5.49-13.42,14.76-22.79,26.55-29.97.21-.13.41-.25.62-.38,15.13,13.18,35.54,22.12,60.96,24.95-9.22,9.18-16.89,18.15-21.86,28.56,24.65,4.06,52.19,4.51,81.58.38-8,12.54-13.74,24.89-16.96,37.88ZM465.12,423.71c2.48,18.85-3.56,28.8-21.66,30.43-12.79-22.95-26-41.34-47.03-48.93-19.2-6.94-45.87-2.69-70.62-2.71-51.27-.03-79.98-26.17-81.87-70.06-.98-22.92,13.03-41.86,10.21-54.79-2.32-10.68-10.29-15.01-18.57-21.13-8.2-6.07-12.13-2.42-2.05-10.61l2.87-2.5,5.07-4.38c1.77-3.43,3.77-6.28,5.96-8.63,1.48-1.55,3-2.9,4.64-4,3.56-2.46,7.44-3.94,11.37-4.46,15.8-2.12,27.01,10.5,31.97,24.11,1.06,2.9,1.88,5.91,2.56,8.96,6.22-16.43,15.09-30.2,25.21-39.17,23.16-20.5,72.97-24.47,93.51-78.21,1.22-4.11,2.69-6.59,4.44-7.39,2.05-.92,4.32.82,6.3,3.06,4.54,5.17,5.96,10.52,10,15.91,2.82,3.74,6.81,7.38,10.26,10.44-9.53,13.83-22.76,23.72-36.98,32.89-19.68,12.71-41.05,18.89-60.38,30.21-20.28,11.84-36.16,30.04-49.33,51.56.3,2.16.58,4.35.9,6.49,40.59-69.4,84.99-57.42,131.29-98.04,14.55-12.8,23.61-27.57,28.67-43.24,1.22-2.4,2.56-3.56,4.04-3.61,4.32-.19,8.41,8.89,10.08,12.24,16.72,33.45,14.61,67.95-1.74,103.27-5.69,56.53-39.27,80.8-87.18,88.5,55.07,27.17,102.77,31.16,135.92-10.36,5.25,24.32-4.96,39.04-23.71,48.43,30.23,26.09-7.41,78.21-34.14,45.72Z" style="fill: #fff; stroke-width: 0px;"/>
  <path d="M113.62,335.82c-1,5.3-5.4,10.3-10.1,11.85-4.7,1.53-8.19-1.23-7.55-6.81.63-5.56,5.44-11.6,10.5-12.86,5.06-1.27,8.15,2.53,7.16,7.82Z" style="fill: #fff; stroke: #1d3557; stroke-miterlimit: 10; stroke-width: .69px;"/>
  <path d="M196.31,313.72l-.66-1.24s.08-.05.12-.07c13.02-7.73,23.72-16.46,30.02-29.1-10.16-19.23-22.76-40.48-40.53-60.55-.03.21-.07.42-.11.63-2.2,13-9.75,22.82-20.8,32.76-.21.19-.43.38-.64.57.45.52.89,1.04,1.32,1.57.44.52.87,1.05,1.29,1.59.43.53.85,1.06,1.26,1.59,1.26,1.6,2.45,3.23,3.61,4.87.78,1.1,1.54,2.2,2.27,3.31,1.11,1.65,2.17,3.32,3.2,5.01.38.63.77,1.26,1.14,1.9.31.51.6,1.02.89,1.52.34.57.67,1.14.98,1.72.62,1.08,1.22,2.16,1.8,3.26,1.58,2.94,3.08,5.9,4.51,8.87.45.91.87,1.82,1.3,2.73.43.92.85,1.83,1.26,2.75.23.51.47,1.02.69,1.52.53,1.17,1.04,2.34,1.55,3.51.51,1.16,1.01,2.32,1.5,3.48.71,1.68,1.42,3.37,2.11,5.03.03.06.05.12.08.18-6.77,4.06-14.36,7.7-22.27,11.55-7.95,3.85-16.23,7.93-24.33,12.84-.8.49-1.61.98-2.4,1.49l.89,1.68c-.06.03-.12.08-.19.11.27.49.54,1,.8,1.5,8.47,15.65,17.62,31.9,31.18,44.71,13.44-8.62,29.02-15.41,42.91-25.02-10.31-11.55-17.03-27.72-24.29-45.15-.15-.36-.3-.73-.46-1.09ZM190.49,356.1c-.85,4.23-5.04,6.34-9.61,4.73-4.55-1.62-7.52-6.57-6.39-11.08,1.12-4.51,5.69-6.64,9.97-4.75,4.29,1.9,6.88,6.88,6.03,11.11ZM189.43,266.32c-.43-5.41,2.03-8.59,5.8-6.95,3.76,1.64,7.45,7.67,7.91,13.31.47,5.65-2.48,8.6-6.28,6.73-3.81-1.88-6.99-7.68-7.42-13.09Z" style="fill: #1d3557; stroke: #1d3557; stroke-miterlimit: 10; stroke-width: .69px;"/>
  <path d="M147.85,335.48c-.8.49-1.61.98-2.4,1.49l-.09-.17,2.49-1.32Z" style="fill: #1d3557; stroke-width: 0px;"/>
  <path d="M194.45,311.09c-6.77,4.06-14.36,7.7-22.27,11.55l22.19-11.72c.03.06.05.12.08.18Z" style="fill: #1d3557; stroke-width: 0px;"/>
  <path d="M196.86,314.76l-.1.05c-.15-.36-.3-.73-.46-1.09l.56,1.04Z" style="fill: #1d3557; stroke-width: 0px;"/>
</svg>